<?xml version="1.0" encoding="UTF-8"?>
<svg width="56px" height="60px" viewBox="0 0 56 60" version="1.1" xmlns="http://www.w3.org/2000/svg" xmlns:xlink="http://www.w3.org/1999/xlink">
    <title>angles-left</title>
    <g id="Page-1" stroke="none" stroke-width="1" fill="none" fill-rule="evenodd">
        <g id="angles-left" fill="#1D00A6" fill-rule="nonzero">
            <path d="M50.5261375,59.5224117 L22.1553573,31.1516315 C21.5185729,30.514847 21.5185729,29.485153 22.1553573,28.8483685 L50.5261375,0.477588348 C51.162922,-0.159196116 52.192616,-0.159196116 52.8294005,0.477588348 L55.5120244,3.16021226 C56.1488089,3.79699673 56.1488089,4.82669075 55.5120244,5.46347522 L31.029694,30 L55.5120244,54.5365248 C56.1488089,55.1733092 56.1488089,56.2030033 55.5120244,56.8397877 L52.8294005,59.5224117 C52.192616,60.1591961 51.162922,60.1591961 50.5261375,59.5224117 Z M31.1516315,59.5224117 L33.8342554,56.8397877 C34.4710399,56.2030033 34.4710399,55.1733092 33.8342554,54.5365248 L9.35192503,30 L33.8342554,5.46347522 C34.4710399,4.82669075 34.4710399,3.79699673 33.8342554,3.16021226 L31.1516315,0.477588348 C30.514847,-0.159196116 29.485153,-0.159196116 28.8483685,0.477588348 L0.477588348,28.8483685 C-0.159196116,29.485153 -0.159196116,30.514847 0.477588348,31.1516315 L28.8483685,59.5224117 C29.485153,60.1591961 30.514847,60.1591961 31.1516315,59.5224117 Z" id="Shape"></path>
        </g>
    </g>
</svg>