<?xml version="1.0" encoding="UTF-8"?>
<svg width="34px" height="34px" viewBox="0 0 34 34" version="1.1" xmlns="http://www.w3.org/2000/svg" xmlns:xlink="http://www.w3.org/1999/xlink">
    <title>pin-unset</title>
    <defs>
        <path d="M17.501,33.9990007 L33.519,22.6320007 L33.519,2.50900067 C33.519,1.12400067 32.367,-8.8817842e-16 30.945,-8.8817842e-16 L2.575,-8.8817842e-16 C1.153,-0.000999333258 1.66533454e-15,1.12300067 1.66533454e-15,2.50900067 L1.66533454e-15,19.7930007 C1.66533454e-15,20.9160007 0.551,21.9710007 1.482,22.6330007 L17.5,33.9990007 L17.501,33.9990007 Z" id="path-1"></path>
    </defs>
    <g id="Page-1" stroke="none" stroke-width="1" fill="none" fill-rule="evenodd">
        <g id="pin-unset" transform="translate(-0.001000, 0.000999)">
            <g id="Clipped">
                <mask id="mask-2" fill="white">
                    <use xlink:href="#path-1"></use>
                </mask>
                <use id="a" fill="#FFFFFF" xlink:href="#path-1"></use>
                <g id="Group" opacity="0.247" stroke-linecap="square" mask="url(#mask-2)" stroke="#FF0000" stroke-width="3">
                    <g transform="translate(-18.819000, -16.573999)" id="Shape">
                        <path d="M17.948,17.973 L39.064,53.117 M23.931,14.378 L45.047,49.522 M29.914,10.783 L51.029,45.927 M35.896,7.189 L57.012,42.333 M41.879,3.594 L62.996,38.738 M47.861,0 L68.979,35.142 M0,28.757 L21.117,63.9 M5.982,25.162 L27.099,60.306 M11.966,21.567 L33.082,56.711"></path>
                    </g>
                </g>
            </g>
            <path d="M17.501,33.3860007 L33.229,22.2240007 L33.229,2.50800067 C33.229,1.40200067 32.303,0.499000667 31.155,0.499000667 L2.575,0.499000667 C1.427,0.499000667 0.501,1.40200067 0.501,2.50900067 L0.501,19.7930007 C0.501,20.7530007 0.973,21.6570007 1.773,22.2240007 L17.5,33.3860007 L17.501,33.3860007 Z" id="Path" stroke="#EAB7B5"></path>
        </g>
    </g>
</svg>