<svg width="512" height="384" xmlns="http://www.w3.org/2000/svg"><path d="M464 0H48C21.49 0 0 21.49 0 48v288c0 26.51 21.49 48 48 48h416c26.51 0 48-21.49 48-48V48c0-26.51-21.49-48-48-48Zm-6 336H54a6 6 0 0 1-6-6V54a6 6 0 0 1 6-6h404a6 6 0 0 1 6 6v276a6 6 0 0 1-6 6ZM128 88c-22.091 0-40 17.909-40 40s17.909 40 40 40 40-17.909 40-40-17.909-40-40-40ZM96 288h320v-80l-87.515-87.515c-4.686-4.686-12.284-4.686-16.971 0L192 240l-39.515-39.515c-4.686-4.686-12.284-4.686-16.971 0L96 240v48Z" fill="#CCC"/></svg>