<svg width="34" height="34" xmlns="http://www.w3.org/2000/svg" xmlns:xlink="http://www.w3.org/1999/xlink"><defs><path d="m17.501 33.999 16.018-11.367V2.509C33.519 1.124 32.367 0 30.945 0H2.575C1.153-.001 0 1.123 0 2.509v17.284c0 1.123.551 2.178 1.482 2.84L17.5 33.999h.001Z" id="a"/></defs><g fill="none" fill-rule="evenodd"><g transform="translate(-.001 .001)"><mask id="b" fill="#fff"><use xlink:href="#a"/></mask><use fill="#FFF" xlink:href="#a"/><g opacity=".247" stroke-linecap="square" mask="url(#b)" stroke="red" stroke-width="3"><path d="m-.871 1.399 21.116 35.144M5.112-2.196l21.116 35.144M11.095-5.791 32.21 29.353M17.077-9.385l21.116 35.144M23.06-12.98l21.117 35.144M29.042-16.574 50.16 18.568m-68.979-6.385L2.298 47.326M-12.837 8.588 8.28 43.732M-6.853 4.993l21.116 35.144"/></g></g><path d="m17.5 33.387 15.728-11.162V2.509c0-1.106-.926-2.009-2.074-2.009H2.574C1.426.5.5 1.403.5 2.51v17.284c0 .96.472 1.864 1.272 2.431l15.727 11.162h.001Z" stroke="#EAB7B5"/></g></svg>